HIERARCHY
ROOT Hips
{
	OFFSET 0.00000 0.00000 0.00000
	CHANNELS 6 Xposition Yposition Zposition Zrotation Yrotation Xrotation 
	JOINT LHipJoint
	{
		OFFSET 0 0 0
		CHANNELS 3 Zrotation Yrotation Xrotation
		JOINT LeftHip
		{
			OFFSET 1.61024 -1.73873 0.75100
			CHANNELS 3 Zrotation Yrotation Xrotation
			JOINT LeftKnee
			{
				OFFSET 2.29819 -6.31424 0.00000
				CHANNELS 3 Zrotation Yrotation Xrotation
				JOINT LeftAnkle
				{
					OFFSET 2.76618 -7.60002 0.00000
					CHANNELS 3 Zrotation Yrotation Xrotation
					JOINT LeftToe
					{
						OFFSET 0.16838 -0.46263 2.02361
						CHANNELS 3 Zrotation Yrotation Xrotation
						End Site
						{
							OFFSET 0.00000 -0.00000 1.04662
						}
					}
				}
			}
		}
	}
	JOINT RHipJoint
	{
		OFFSET 0 0 0
		CHANNELS 3 Zrotation Yrotation Xrotation
		JOINT RightHip
		{
			OFFSET -1.46153 -1.73873 0.75100
			CHANNELS 3 Zrotation Yrotation Xrotation
			JOINT RightKnee
			{
				OFFSET -2.38373 -6.54924 0.00000
				CHANNELS 3 Zrotation Yrotation Xrotation
				JOINT RightAnkle
				{
					OFFSET -2.80314 -7.70157 0.00000
					CHANNELS 3 Zrotation Yrotation Xrotation
					JOINT RightToe
					{
						OFFSET -0.16142 -0.44349 2.02101
						CHANNELS 3 Zrotation Yrotation Xrotation
						End Site
						{
							OFFSET -0.00000 -0.00000 1.04381
						}
					}
				}
			}
		}
	}
	JOINT lowerback
	{
		OFFSET 0 0 0
		CHANNELS 3 Zrotation Yrotation Xrotation
		JOINT Chest
		{
			OFFSET -0.01629 1.66985 0.14750
			CHANNELS 3 Zrotation Yrotation Xrotation
			JOINT Chest2
			{
				OFFSET 0.02086 1.62378 0.20980
				CHANNELS 3 Zrotation Yrotation Xrotation
				JOINT lowerneck
				{
					OFFSET 0 0 0
					CHANNELS 3 Zrotation Yrotation Xrotation
					JOINT Neck
					{
						OFFSET -0.05690 1.78719 0.08702
						CHANNELS 3 Zrotation Yrotation Xrotation
						JOINT Head
						{
							OFFSET 0.16035 1.73871 -0.38470
							CHANNELS 3 Zrotation Yrotation Xrotation
							End Site
							{
								OFFSET 0.05645 1.80914 -0.14081
							}
						}
					}
				}
				JOINT LeftCollar
				{
					OFFSET 0 0 0
					CHANNELS 3 Zrotation Yrotation Xrotation
					JOINT LeftShoulder
					{
						OFFSET 2.83089 1.66494 -0.46008
CHANNELS 3 Zrotation Xrotation Yrotation
						JOINT LeftElbow
						{
OFFSET 0 -5.548930 -0.000000
CHANNELS 3 Zrotation Xrotation Yrotation
							JOINT LeftWrist
							{
OFFSET 0 -3.028980 -0.000000
CHANNELS 3 Zrotation Xrotation Yrotation
								JOINT lhand
								{
									OFFSET 0 0 0
CHANNELS 3 Zrotation Xrotation Yrotation
									JOINT LFingers
									{
OFFSET 0 -0.640950 -0.000000
CHANNELS 3 Zrotation Xrotation Yrotation
										End Site
										{
OFFSET 0 -0.516750 -0.000000
										}
									}
								}
								JOINT LThumb
								{
OFFSET 0 0.000000 0.000000
CHANNELS 3 Zrotation Xrotation Yrotation
									End Site
									{
OFFSET 0 -0.524640 0.524640
									}
								}
							}
						}
					}
				}
				JOINT RightCollar
				{
					OFFSET 0 0 0
					CHANNELS 3 Zrotation Yrotation Xrotation
					JOINT RightShoulder
					{
						OFFSET -2.84442 1.45761 -0.18088
CHANNELS 3 Zrotation Xrotation Yrotation
						JOINT RightElbow
						{
OFFSET 0 -5.351900 -0.000000
CHANNELS 3 Zrotation Xrotation Yrotation
							JOINT RightWrist
							{
OFFSET 0 -3.025310 -0.000000
CHANNELS 3 Zrotation Xrotation Yrotation
								JOINT rhand
								{
									OFFSET 0 0 0
CHANNELS 3 Zrotation Xrotation Yrotation
									JOINT RFingers
									{
OFFSET 0 -0.783890 -0.000000
CHANNELS 3 Zrotation Xrotation Yrotation
										End Site
										{
OFFSET 0 -0.631990 -0.000000
										}
									}
								}
								JOINT RThumb
								{
OFFSET 0 0.000000 0.000000
CHANNELS 3 Zrotation Xrotation Yrotation
									End Site
									{
OFFSET 0 -0.641640 0.641640
									}
								}
							}
						}
					}
				}
			}
		}
	}
}
MOTION
Frames: 7
Frame Time: 0.008333333333333333
-2.507791 17.531639 0.476530 -889.146130 57.417387 -861.848346 0.000000 0.000000 0.000000 3.659611 -28.220875 -47.917985 1.414257 7.521367 21.269310 -0.122382 6.214953 -1.697981 2.200217 -9.271129 -26.647288 0.000000 0.000000 0.000000 16.548615 8.240669 -38.591559 -1.648556 -8.092069 22.994029 1.106643 -20.732345 -18.446879 -0.583551 4.891353 -13.599078 -4.985200 -2.701700 21.527100 -10.284600 -2.357300 11.582600 -7.868000 -0.191500 0.521800 -11.502800 -9.737900 -9.190900 28.323100 -14.098500 3.794500 9.820400 -5.876900 5.835800 0.000000 0.000000 0.000000 6.356100 -70.755200 -74.478400 143.595400 -45.789400 104.188200 34.146800 -64.322900 -29.894400 0.000000 0.000000 0.000000 -7.125000 0.000000 0.000000 4.087300 64.721600 -1.952100 0.000000 0.000000 0.000000 -184.010000 -50.857600 -122.605700 -9.606400 -16.121500 -1.363600 -28.692800 74.759500 -15.638500 0.000000 0.000000 0.000000 7.125000 0.000000 0.000000 -0.680200 12.282100 -0.520000
-2.562738 17.533492 0.506265 -889.393526 58.747150 -862.157172 0.000000 0.000000 0.000000 2.831175 -27.580126 -47.408442 1.340510 7.330677 20.698770 -0.144781 6.792204 -1.509068 2.269911 -9.406935 -27.076833 0.000000 0.000000 0.000000 15.692985 8.857726 -38.885028 -1.692742 -8.194332 23.305887 1.062781 -20.355982 -18.131825 -0.558345 4.786205 -13.299796 -4.985200 -2.701700 21.527100 -10.284600 -2.357300 11.582600 -7.868000 -0.191500 0.521800 -11.502800 -9.737900 -9.190900 28.323100 -14.098500 3.794500 9.820400 -5.876900 5.835800 0.000000 0.000000 0.000000 6.356100 -70.755200 -74.478400 143.595400 -45.789400 104.188200 34.146800 -64.322900 -29.894400 0.000000 0.000000 0.000000 -7.125000 0.000000 0.000000 4.087300 64.721600 -1.952100 0.000000 0.000000 0.000000 -184.010000 -50.857600 -122.605700 -9.606400 -16.121500 -1.363600 -28.692800 74.759500 -15.638500 0.000000 0.000000 0.000000 7.125000 0.000000 0.000000 -0.680200 12.282100 -0.520000
-2.616867 17.520083 0.546576 -889.214366 59.662278 -862.187689 0.000000 0.000000 0.000000 2.945740 -27.635621 -47.253861 1.346395 7.346043 20.744763 -0.196377 7.897795 -1.791976 2.306774 -9.477826 -27.301890 0.000000 0.000000 0.000000 15.474828 8.965695 -39.347264 -1.758614 -8.343970 23.763779 1.008181 -19.752254 -17.407158 -0.603895 4.974438 -13.835705 -4.985200 -2.701700 21.527100 -10.284600 -2.357300 11.582600 -7.868000 -0.191500 0.521800 -11.502800 -9.737900 -9.190900 28.323100 -14.098500 3.794500 9.820400 -5.876900 5.835800 0.000000 0.000000 0.000000 6.356100 -70.755200 -74.478400 143.595400 -45.789400 104.188200 34.146800 -64.322900 -29.894400 0.000000 0.000000 0.000000 -7.125000 0.000000 0.000000 4.087300 64.721600 -1.952100 0.000000 0.000000 0.000000 -184.010000 -50.857600 -122.605700 -9.606400 -16.121500 -1.363600 -28.692800 74.759500 -15.638500 0.000000 0.000000 0.000000 7.125000 0.000000 0.000000 -0.680200 12.282100 -0.520000
-2.653858 17.515856 0.589693 -889.431092 60.330288 -862.676726 0.000000 0.000000 0.000000 2.947650 -27.980511 -46.809900 1.324359 7.288125 20.571935 -0.254938 9.009449 -1.885096 2.380943 -9.618086 -27.748719 0.000000 0.000000 0.000000 15.253685 8.857240 -39.654799 -1.828748 -8.499853 24.242783 0.944563 -19.189803 -16.970229 -0.626917 5.066521 -14.098353 -4.985200 -2.701700 21.527100 -10.284600 -2.357300 11.582600 -7.868000 -0.191500 0.521800 -11.502800 -9.737900 -9.190900 28.323100 -14.098500 3.794500 9.820400 -5.876900 5.835800 0.000000 0.000000 0.000000 6.356100 -70.755200 -74.478400 143.595400 -45.789400 104.188200 34.146800 -64.322900 -29.894400 0.000000 0.000000 0.000000 -7.125000 0.000000 0.000000 4.087300 64.721600 -1.952100 0.000000 0.000000 0.000000 -184.010000 -50.857600 -122.605700 -9.606400 -16.121500 -1.363600 -28.692800 74.759500 -15.638500 0.000000 0.000000 0.000000 7.125000 0.000000 0.000000 -0.680200 12.282100 -0.520000
-2.674477 17.517070 0.635627 -889.336641 60.238955 -863.014533 0.000000 0.000000 0.000000 3.147735 -28.220095 -46.371009 1.318641 7.272997 20.526813 -0.287957 9.544510 -2.171880 2.479711 -9.800678 -28.333900 0.000000 0.000000 0.000000 15.446907 8.860577 -39.393556 -1.850938 -8.548331 24.392389 0.961722 -19.264107 -16.879337 -0.665517 5.217369 -14.529428 -4.985200 -2.701700 21.527100 -10.284600 -2.357300 11.582600 -7.868000 -0.191500 0.521800 -11.502800 -9.737900 -9.190900 28.323100 -14.098500 3.794500 9.820400 -5.876900 5.835800 0.000000 0.000000 0.000000 6.356100 -70.755200 -74.478400 143.595400 -45.789400 104.188200 34.146800 -64.322900 -29.894400 0.000000 0.000000 0.000000 -7.125000 0.000000 0.000000 4.087300 64.721600 -1.952100 0.000000 0.000000 0.000000 -184.010000 -50.857600 -122.605700 -9.606400 -16.121500 -1.363600 -28.692800 74.759500 -15.638500 0.000000 0.000000 0.000000 7.125000 0.000000 0.000000 -0.680200 12.282100 -0.520000
-2.677505 17.513561 0.667516 -889.642242 60.146996 -863.448566 0.000000 0.000000 0.000000 3.006770 -28.209511 -46.203539 1.312502 7.256687 20.478158 -0.288684 9.524214 -2.464909 2.575202 -9.973335 -28.890387 0.000000 0.000000 0.000000 15.349064 8.938906 -39.367968 -1.888585 -8.630013 24.644776 0.990217 -19.447658 -16.890183 -0.680497 5.274381 -14.692848 -4.985200 -2.701700 21.527100 -10.284600 -2.357300 11.582600 -7.868000 -0.191500 0.521800 -11.502800 -9.737900 -9.190900 28.323100 -14.098500 3.794500 9.820400 -5.876900 5.835800 0.000000 0.000000 0.000000 6.356100 -70.755200 -74.478400 143.595400 -45.789400 104.188200 34.146800 -64.322900 -29.894400 0.000000 0.000000 0.000000 -7.125000 0.000000 0.000000 4.087300 64.721600 -1.952100 0.000000 0.000000 0.000000 -184.010000 -50.857600 -122.605700 -9.606400 -16.121500 -1.363600 -28.692800 74.759500 -15.638500 0.000000 0.000000 0.000000 7.125000 0.000000 0.000000 -0.680200 12.282100 -0.520000
-2.667220 17.513410 0.673154 -889.649344 60.105137 -863.659930 0.000000 0.000000 0.000000 2.831736 -28.102212 -46.034639 1.326014 7.292519 20.584931 -0.275704 9.313329 -2.381795 2.577774 -9.977847 -28.905039 0.000000 0.000000 0.000000 15.324014 9.084772 -39.061081 -1.893386 -8.640378 24.676782 0.988742 -19.540805 -17.164408 -0.628814 5.073976 -14.119703 -4.985200 -2.701700 21.527100 -10.284600 -2.357300 11.582600 -7.868000 -0.191500 0.521800 -11.502800 -9.737900 -9.190900 28.323100 -14.098500 3.794500 9.820400 -5.876900 5.835800 0.000000 0.000000 0.000000 6.356100 -70.755200 -74.478400 143.595400 -45.789400 104.188200 34.146800 -64.322900 -29.894400 0.000000 0.000000 0.000000 -7.125000 0.000000 0.000000 4.087300 64.721600 -1.952100 0.000000 0.000000 0.000000 -184.010000 -50.857600 -122.605700 -9.606400 -16.121500 -1.363600 -28.692800 74.759500 -15.638500 0.000000 0.000000 0.000000 7.125000 0.000000 0.000000 -0.680200 12.282100 -0.520000
